<mxfile host="app.diagrams.net" modified="2021-09-28T01:22:20.797Z" agent="5.0 (Macintosh; Intel Mac OS X 10_15_7) AppleWebKit/537.36 (KHTML, like Gecko) Chrome/93.0.4577.82 Safari/537.36" etag="Oya_dEsWKc7lrxsVeLbg" version="15.3.5" type="github">
  <diagram id="C5RBs43oDa-KdzZeNtuy" name="Page-1">
    <mxGraphModel dx="946" dy="589" grid="1" gridSize="10" guides="1" tooltips="1" connect="1" arrows="1" fold="1" page="1" pageScale="1" pageWidth="3300" pageHeight="4681" math="0" shadow="0">
      <root>
        <mxCell id="WIyWlLk6GJQsqaUBKTNV-0" />
        <mxCell id="WIyWlLk6GJQsqaUBKTNV-1" parent="WIyWlLk6GJQsqaUBKTNV-0" />
        <mxCell id="qGOXJuil2sutBYdM2akC-37" value="" style="endArrow=none;html=1;rounded=0;align=center;verticalAlign=bottom;labelBackgroundColor=none;startSize=14;endSize=14;sourcePerimeterSpacing=8;targetPerimeterSpacing=8;exitX=0.5;exitY=0;exitDx=0;exitDy=0;entryX=0.5;entryY=1;entryDx=0;entryDy=0;" edge="1" parent="WIyWlLk6GJQsqaUBKTNV-1" source="qGOXJuil2sutBYdM2akC-31" target="qGOXJuil2sutBYdM2akC-30">
          <mxGeometry relative="1" as="geometry">
            <mxPoint x="716" y="770" as="sourcePoint" />
            <mxPoint x="716" y="720" as="targetPoint" />
          </mxGeometry>
        </mxCell>
        <mxCell id="qGOXJuil2sutBYdM2akC-0" value="类名" style="swimlane;fontStyle=1;align=center;verticalAlign=top;childLayout=stackLayout;horizontal=1;startSize=26;horizontalStack=0;resizeParent=1;resizeParentMax=0;resizeLast=0;collapsible=1;marginBottom=0;hachureGap=4;pointerEvents=0;" vertex="1" parent="WIyWlLk6GJQsqaUBKTNV-1">
          <mxGeometry x="320" y="310" width="160" height="122" as="geometry">
            <mxRectangle x="330" y="260" width="60" height="26" as="alternateBounds" />
          </mxGeometry>
        </mxCell>
        <mxCell id="qGOXJuil2sutBYdM2akC-1" value="方法1&#xa;方法2" style="text;strokeColor=none;fillColor=none;align=left;verticalAlign=top;spacingLeft=4;spacingRight=4;overflow=hidden;rotatable=0;points=[[0,0.5],[1,0.5]];portConstraint=eastwest;" vertex="1" parent="qGOXJuil2sutBYdM2akC-0">
          <mxGeometry y="26" width="160" height="44" as="geometry" />
        </mxCell>
        <mxCell id="qGOXJuil2sutBYdM2akC-2" value="" style="line;strokeWidth=1;fillColor=none;align=left;verticalAlign=middle;spacingTop=-1;spacingLeft=3;spacingRight=3;rotatable=0;labelPosition=right;points=[];portConstraint=eastwest;" vertex="1" parent="qGOXJuil2sutBYdM2akC-0">
          <mxGeometry y="70" width="160" height="8" as="geometry" />
        </mxCell>
        <mxCell id="qGOXJuil2sutBYdM2akC-3" value="实例对象1&#xa;实例对象2" style="text;strokeColor=none;fillColor=none;align=left;verticalAlign=top;spacingLeft=4;spacingRight=4;overflow=hidden;rotatable=0;points=[[0,0.5],[1,0.5]];portConstraint=eastwest;" vertex="1" parent="qGOXJuil2sutBYdM2akC-0">
          <mxGeometry y="78" width="160" height="44" as="geometry" />
        </mxCell>
        <mxCell id="qGOXJuil2sutBYdM2akC-5" value="将类描述成矩形， 其中的类名以黑体表示。 操作在类名下面， 用常规字体表示。 类所定义的任何数据都在操作的下面。 类名与操作之间以及操作与数据之间用横线分割。" style="text;html=1;strokeColor=none;fillColor=none;align=left;verticalAlign=middle;whiteSpace=wrap;rounded=0;hachureGap=4;pointerEvents=0;" vertex="1" parent="WIyWlLk6GJQsqaUBKTNV-1">
          <mxGeometry x="314" y="250" width="200" height="20" as="geometry" />
        </mxCell>
        <mxCell id="qGOXJuil2sutBYdM2akC-6" value="构造器类" style="html=1;hachureGap=4;pointerEvents=0;" vertex="1" parent="WIyWlLk6GJQsqaUBKTNV-1">
          <mxGeometry x="610" y="359" width="110" height="50" as="geometry" />
        </mxCell>
        <mxCell id="qGOXJuil2sutBYdM2akC-7" value="构造者类" style="html=1;hachureGap=4;pointerEvents=0;" vertex="1" parent="WIyWlLk6GJQsqaUBKTNV-1">
          <mxGeometry x="830" y="359" width="110" height="50" as="geometry" />
        </mxCell>
        <mxCell id="qGOXJuil2sutBYdM2akC-10" value="实例化" style="html=1;verticalAlign=bottom;endArrow=block;startSize=14;endSize=14;sourcePerimeterSpacing=8;targetPerimeterSpacing=8;dashed=1;exitX=1;exitY=0.5;exitDx=0;exitDy=0;entryX=0;entryY=0.5;entryDx=0;entryDy=0;" edge="1" parent="WIyWlLk6GJQsqaUBKTNV-1" source="qGOXJuil2sutBYdM2akC-6" target="qGOXJuil2sutBYdM2akC-7">
          <mxGeometry width="80" relative="1" as="geometry">
            <mxPoint x="600" y="500" as="sourcePoint" />
            <mxPoint x="800" y="384" as="targetPoint" />
          </mxGeometry>
        </mxCell>
        <mxCell id="qGOXJuil2sutBYdM2akC-16" value="虚箭头线表示一个类实例化另一个类的对象，箭头指向被实例化的对象的类" style="text;html=1;strokeColor=none;fillColor=none;align=center;verticalAlign=middle;whiteSpace=wrap;rounded=0;hachureGap=4;pointerEvents=0;" vertex="1" parent="WIyWlLk6GJQsqaUBKTNV-1">
          <mxGeometry x="610" y="330" width="310" height="10" as="geometry" />
        </mxCell>
        <mxCell id="qGOXJuil2sutBYdM2akC-17" value="&lt;p style=&quot;margin: 0px ; margin-top: 4px ; text-align: center&quot;&gt;&lt;b&gt;父类&lt;/b&gt;&lt;/p&gt;&lt;hr size=&quot;1&quot;&gt;&lt;div style=&quot;height: 2px&quot;&gt;&amp;nbsp;方法&lt;/div&gt;" style="verticalAlign=top;align=left;overflow=fill;fontSize=12;fontFamily=Helvetica;html=1;hachureGap=4;pointerEvents=0;" vertex="1" parent="WIyWlLk6GJQsqaUBKTNV-1">
          <mxGeometry x="320" y="610" width="140" height="60" as="geometry" />
        </mxCell>
        <mxCell id="qGOXJuil2sutBYdM2akC-19" value="子类" style="html=1;hachureGap=4;pointerEvents=0;" vertex="1" parent="WIyWlLk6GJQsqaUBKTNV-1">
          <mxGeometry x="320" y="720" width="140" height="50" as="geometry" />
        </mxCell>
        <mxCell id="qGOXJuil2sutBYdM2akC-23" value="" style="endArrow=none;html=1;rounded=0;align=center;verticalAlign=bottom;labelBackgroundColor=none;startSize=14;endSize=14;sourcePerimeterSpacing=8;targetPerimeterSpacing=8;exitX=0.5;exitY=0;exitDx=0;exitDy=0;entryX=0.5;entryY=1;entryDx=0;entryDy=0;" edge="1" parent="WIyWlLk6GJQsqaUBKTNV-1" source="qGOXJuil2sutBYdM2akC-19" target="qGOXJuil2sutBYdM2akC-17">
          <mxGeometry relative="1" as="geometry">
            <mxPoint x="590" y="702" as="sourcePoint" />
            <mxPoint x="730" y="702" as="targetPoint" />
          </mxGeometry>
        </mxCell>
        <mxCell id="qGOXJuil2sutBYdM2akC-22" value="" style="triangle;aspect=fixed;fillColor=default;hachureGap=4;pointerEvents=0;rotation=270;" vertex="1" parent="WIyWlLk6GJQsqaUBKTNV-1">
          <mxGeometry x="387" y="690" width="6" height="12" as="geometry" />
        </mxCell>
        <mxCell id="qGOXJuil2sutBYdM2akC-26" value="用实线和空心三角表示子类关系。" style="text;html=1;strokeColor=none;fillColor=none;align=center;verticalAlign=middle;whiteSpace=wrap;rounded=0;hachureGap=4;pointerEvents=0;" vertex="1" parent="WIyWlLk6GJQsqaUBKTNV-1">
          <mxGeometry x="235" y="560" width="330" height="50" as="geometry" />
        </mxCell>
        <mxCell id="qGOXJuil2sutBYdM2akC-30" value="&lt;p style=&quot;margin: 0px ; margin-top: 4px ; text-align: center&quot;&gt;&lt;b&gt;抽象类&lt;/b&gt;&lt;/p&gt;&lt;hr size=&quot;1&quot;&gt;&lt;div style=&quot;height: 2px&quot;&gt;&amp;nbsp;方法&lt;/div&gt;" style="verticalAlign=top;align=left;overflow=fill;fontSize=12;fontFamily=Helvetica;html=1;hachureGap=4;pointerEvents=0;" vertex="1" parent="WIyWlLk6GJQsqaUBKTNV-1">
          <mxGeometry x="740" y="630" width="140" height="60" as="geometry" />
        </mxCell>
        <mxCell id="qGOXJuil2sutBYdM2akC-31" value="&lt;p style=&quot;margin: 0px ; margin-top: 4px ; text-align: center&quot;&gt;&lt;b&gt;具体类&lt;/b&gt;&lt;/p&gt;&lt;hr size=&quot;1&quot;&gt;&lt;div style=&quot;height: 2px&quot;&gt;&amp;nbsp;方法&lt;/div&gt;" style="verticalAlign=top;align=left;overflow=fill;fontSize=12;fontFamily=Helvetica;html=1;hachureGap=4;pointerEvents=0;" vertex="1" parent="WIyWlLk6GJQsqaUBKTNV-1">
          <mxGeometry x="740" y="730" width="140" height="60" as="geometry" />
        </mxCell>
        <mxCell id="qGOXJuil2sutBYdM2akC-36" value="实现方法&lt;br&gt;伪代码" style="shape=note2;boundedLbl=1;whiteSpace=wrap;html=1;size=25;verticalAlign=top;align=center;hachureGap=4;pointerEvents=0;fillColor=default;" vertex="1" parent="WIyWlLk6GJQsqaUBKTNV-1">
          <mxGeometry x="1020" y="720" width="120" height="80" as="geometry" />
        </mxCell>
        <mxCell id="qGOXJuil2sutBYdM2akC-44" value="" style="group" vertex="1" connectable="0" parent="WIyWlLk6GJQsqaUBKTNV-1">
          <mxGeometry x="804" y="690" width="12" height="50" as="geometry" />
        </mxCell>
        <mxCell id="qGOXJuil2sutBYdM2akC-38" value="" style="triangle;aspect=fixed;fillColor=#FFFFFF;hachureGap=4;pointerEvents=0;rotation=270;" vertex="1" parent="qGOXJuil2sutBYdM2akC-44">
          <mxGeometry x="3" y="15" width="6" height="12" as="geometry" />
        </mxCell>
        <mxCell id="qGOXJuil2sutBYdM2akC-48" value="" style="endArrow=none;html=1;rounded=0;align=center;verticalAlign=top;endFill=0;labelBackgroundColor=none;endSize=6;startArrow=oval;startFill=0;sourcePerimeterSpacing=8;targetPerimeterSpacing=8;entryX=-0.018;entryY=0.633;entryDx=0;entryDy=0;entryPerimeter=0;dashed=1;" edge="1" parent="WIyWlLk6GJQsqaUBKTNV-1" target="qGOXJuil2sutBYdM2akC-36">
          <mxGeometry relative="1" as="geometry">
            <mxPoint x="840" y="770" as="sourcePoint" />
            <mxPoint x="1000" y="770" as="targetPoint" />
          </mxGeometry>
        </mxCell>
        <mxCell id="qGOXJuil2sutBYdM2akC-49" value="抽象类的主要目的是为它的子类定义公共接口。一个抽象类将把它的部分或全部操作的实现延迟到子类中， 因此，一个抽象类不能被实例化。在抽象类中定义却没有实现的操作，被称为抽象操作。 非抽象类，称为具体类。&lt;br&gt;&lt;br&gt;&lt;div style=&quot;text-align: left&quot;&gt;&lt;font size=&quot;1&quot;&gt;抽象类的类名以斜体表示，来和具体类相区别。 抽象操作也用斜体表示。 图中可以包括实现操作的伪代码，如果是这样则代码将出现在带有褶角的框中， 并用虚线将该摺角框与代码所实现的操作相连。&lt;/font&gt;&lt;/div&gt;" style="text;html=1;strokeColor=none;fillColor=none;align=center;verticalAlign=middle;whiteSpace=wrap;rounded=0;hachureGap=4;pointerEvents=0;" vertex="1" parent="WIyWlLk6GJQsqaUBKTNV-1">
          <mxGeometry x="920" y="570" width="215" height="60" as="geometry" />
        </mxCell>
        <mxCell id="qGOXJuil2sutBYdM2akC-51" value="&lt;p style=&quot;margin: 0px ; margin-top: 4px ; text-align: center&quot;&gt;&lt;b&gt;Window&lt;/b&gt;&lt;/p&gt;&lt;hr size=&quot;1&quot;&gt;&lt;div style=&quot;height: 2px&quot;&gt;&amp;nbsp;Area()&lt;/div&gt;" style="verticalAlign=top;align=left;overflow=fill;fontSize=12;fontFamily=Helvetica;html=1;hachureGap=4;pointerEvents=0;" vertex="1" parent="WIyWlLk6GJQsqaUBKTNV-1">
          <mxGeometry x="1340" y="740" width="140" height="60" as="geometry" />
        </mxCell>
        <mxCell id="qGOXJuil2sutBYdM2akC-52" value="return rectangle-&amp;gt;Area()" style="shape=note2;boundedLbl=1;whiteSpace=wrap;html=1;size=25;verticalAlign=top;align=center;hachureGap=4;pointerEvents=0;fillColor=default;" vertex="1" parent="WIyWlLk6GJQsqaUBKTNV-1">
          <mxGeometry x="1332.5" y="850" width="155" height="70" as="geometry" />
        </mxCell>
        <mxCell id="qGOXJuil2sutBYdM2akC-53" value="" style="endArrow=none;html=1;rounded=0;align=center;verticalAlign=top;endFill=0;labelBackgroundColor=none;endSize=6;startArrow=oval;startFill=0;sourcePerimeterSpacing=8;targetPerimeterSpacing=8;entryX=0.5;entryY=0;entryDx=0;entryDy=0;entryPerimeter=0;dashed=1;" edge="1" parent="WIyWlLk6GJQsqaUBKTNV-1" target="qGOXJuil2sutBYdM2akC-52">
          <mxGeometry relative="1" as="geometry">
            <mxPoint x="1410" y="780" as="sourcePoint" />
            <mxPoint x="1297.84" y="850.6400000000001" as="targetPoint" />
          </mxGeometry>
        </mxCell>
        <mxCell id="qGOXJuil2sutBYdM2akC-57" value="Rectangle" style="swimlane;fontStyle=1;align=center;verticalAlign=top;childLayout=stackLayout;horizontal=1;startSize=26;horizontalStack=0;resizeParent=1;resizeParentMax=0;resizeLast=0;collapsible=1;marginBottom=0;hachureGap=4;pointerEvents=0;fillColor=#FFFFFF;" vertex="1" parent="WIyWlLk6GJQsqaUBKTNV-1">
          <mxGeometry x="1670" y="730" width="160" height="100" as="geometry" />
        </mxCell>
        <mxCell id="qGOXJuil2sutBYdM2akC-58" value="Area()" style="text;strokeColor=none;fillColor=none;align=left;verticalAlign=top;spacingLeft=4;spacingRight=4;overflow=hidden;rotatable=0;points=[[0,0.5],[1,0.5]];portConstraint=eastwest;" vertex="1" parent="qGOXJuil2sutBYdM2akC-57">
          <mxGeometry y="26" width="160" height="26" as="geometry" />
        </mxCell>
        <mxCell id="qGOXJuil2sutBYdM2akC-59" value="" style="line;strokeWidth=1;fillColor=none;align=left;verticalAlign=middle;spacingTop=-1;spacingLeft=3;spacingRight=3;rotatable=0;labelPosition=right;points=[];portConstraint=eastwest;" vertex="1" parent="qGOXJuil2sutBYdM2akC-57">
          <mxGeometry y="52" width="160" height="8" as="geometry" />
        </mxCell>
        <mxCell id="qGOXJuil2sutBYdM2akC-63" value="" style="endArrow=none;html=1;rounded=0;align=center;verticalAlign=top;endFill=0;labelBackgroundColor=none;endSize=6;startArrow=oval;startFill=0;sourcePerimeterSpacing=8;targetPerimeterSpacing=8;dashed=1;entryX=0.5;entryY=0;entryDx=0;entryDy=0;entryPerimeter=0;" edge="1" parent="qGOXJuil2sutBYdM2akC-57" target="qGOXJuil2sutBYdM2akC-62">
          <mxGeometry relative="1" as="geometry">
            <mxPoint x="79.5" y="45" as="sourcePoint" />
            <mxPoint x="80" y="120" as="targetPoint" />
          </mxGeometry>
        </mxCell>
        <mxCell id="qGOXJuil2sutBYdM2akC-60" value="width&#xa;height" style="text;strokeColor=none;fillColor=none;align=left;verticalAlign=top;spacingLeft=4;spacingRight=4;overflow=hidden;rotatable=0;points=[[0,0.5],[1,0.5]];portConstraint=eastwest;" vertex="1" parent="qGOXJuil2sutBYdM2akC-57">
          <mxGeometry y="60" width="160" height="40" as="geometry" />
        </mxCell>
        <mxCell id="qGOXJuil2sutBYdM2akC-61" value="" style="html=1;verticalAlign=bottom;labelBackgroundColor=none;endArrow=blockThin;endFill=1;startSize=14;endSize=14;sourcePerimeterSpacing=8;targetPerimeterSpacing=8;entryX=0;entryY=0.5;entryDx=0;entryDy=0;exitX=1;exitY=0.5;exitDx=0;exitDy=0;" edge="1" parent="WIyWlLk6GJQsqaUBKTNV-1" source="qGOXJuil2sutBYdM2akC-51" target="qGOXJuil2sutBYdM2akC-58">
          <mxGeometry width="160" relative="1" as="geometry">
            <mxPoint x="1560" y="890" as="sourcePoint" />
            <mxPoint x="1720" y="890" as="targetPoint" />
          </mxGeometry>
        </mxCell>
        <mxCell id="qGOXJuil2sutBYdM2akC-65" value="rectangle" style="edgeLabel;html=1;align=center;verticalAlign=middle;resizable=0;points=[];" vertex="1" connectable="0" parent="qGOXJuil2sutBYdM2akC-61">
          <mxGeometry x="-0.2946" y="3" relative="1" as="geometry">
            <mxPoint y="-11" as="offset" />
          </mxGeometry>
        </mxCell>
        <mxCell id="qGOXJuil2sutBYdM2akC-62" value="return width * height" style="shape=note2;boundedLbl=1;whiteSpace=wrap;html=1;size=25;verticalAlign=top;align=center;hachureGap=4;pointerEvents=0;fillColor=default;" vertex="1" parent="WIyWlLk6GJQsqaUBKTNV-1">
          <mxGeometry x="1672.5" y="850" width="155" height="70" as="geometry" />
        </mxCell>
        <mxCell id="qGOXJuil2sutBYdM2akC-64" value="下图显示了窗口类将它的Area操作委托给一个矩形实例。&lt;br&gt;&lt;br&gt;箭头线表示一个类对另一个类实例的引用关系。" style="text;html=1;strokeColor=none;fillColor=none;align=left;verticalAlign=middle;whiteSpace=wrap;rounded=0;hachureGap=4;pointerEvents=0;" vertex="1" parent="WIyWlLk6GJQsqaUBKTNV-1">
          <mxGeometry x="1420" y="660" width="330" height="60" as="geometry" />
        </mxCell>
      </root>
    </mxGraphModel>
  </diagram>
</mxfile>
